<mxfile host="app.diagrams.net" modified="2023-05-23T07:46:23.523Z" agent="Mozilla/5.0 (Macintosh; Intel Mac OS X 10_15_7) AppleWebKit/537.36 (KHTML, like Gecko) Chrome/113.0.0.0 Safari/537.36" version="21.3.2" etag="yV5Z1OXr7Q8Fz2glZ3Ll" type="github">
  <diagram name="หน้า-1" id="9ROWrhSY8lyfW2g1wA5t">
    <mxGraphModel>
      <root>
        <mxCell id="0" />
        <mxCell id="1" parent="0" />
      </root>
    </mxGraphModel>
  </diagram>
</mxfile>
